<svg width="24" height="24" viewBox="0 0 24 24" fill="none" xmlns="http://www.w3.org/2000/svg">
<path d="M6.3125 4C4.48542 4 3 5.48541 3 7.3125V13.6875C3 15.5146 4.48542 17 6.3125 17H7.03125V20.5C7.03148 20.5895 7.05732 20.6771 7.10571 20.7524C7.15411 20.8277 7.22304 20.8875 7.30437 20.9249C7.3857 20.9623 7.47602 20.9756 7.56468 20.9633C7.65333 20.951 7.73661 20.9136 7.80469 20.8555L12.3047 17H17.6875C19.5146 17 21 15.5146 21 13.6875V7.3125C21 5.48541 19.5146 4 17.6875 4H6.3125Z" fill="#CCCCCC"/>
</svg>
