<svg width="512" height="512" viewBox="0 0 512 512" fill="none" xmlns="http://www.w3.org/2000/svg">
<path d="M68.25 255.35C61.75 255.35 55.9 254.2 50.7 251.9C45.6 249.5 41.55 246.3 38.55 242.3C35.55 238.2 33.95 233.65 33.75 228.65H51.45C51.75 232.15 53.4 235.1 56.4 237.5C59.5 239.8 63.35 240.95 67.95 240.95C72.75 240.95 76.45 240.05 79.05 238.25C81.75 236.35 83.1 233.95 83.1 231.05C83.1 227.95 81.6 225.65 78.6 224.15C75.7 222.65 71.05 221 64.65 219.2C58.45 217.5 53.4 215.85 49.5 214.25C45.6 212.65 42.2 210.2 39.3 206.9C36.5 203.6 35.1 199.25 35.1 193.85C35.1 189.45 36.4 185.45 39 181.85C41.6 178.15 45.3 175.25 50.1 173.15C55 171.05 60.6 170 66.9 170C76.3 170 83.85 172.4 89.55 177.2C95.35 181.9 98.45 188.35 98.85 196.55H81.75C81.45 192.85 79.95 189.9 77.25 187.7C74.55 185.5 70.9 184.4 66.3 184.4C61.8 184.4 58.35 185.25 55.95 186.95C53.55 188.65 52.35 190.9 52.35 193.7C52.35 195.9 53.15 197.75 54.75 199.25C56.35 200.75 58.3 201.95 60.6 202.85C62.9 203.65 66.3 204.7 70.8 206C76.8 207.6 81.7 209.25 85.5 210.95C89.4 212.55 92.75 214.95 95.55 218.15C98.35 221.35 99.8 225.6 99.9 230.9C99.9 235.6 98.6 239.8 96 243.5C93.4 247.2 89.7 250.1 84.9 252.2C80.2 254.3 74.65 255.35 68.25 255.35ZM154.227 255.35C146.427 255.35 139.377 253.6 133.077 250.1C126.777 246.5 121.827 241.5 118.227 235.1C114.627 228.6 112.827 221.1 112.827 212.6C112.827 204.2 114.677 196.75 118.377 190.25C122.077 183.75 127.127 178.75 133.527 175.25C139.927 171.75 147.077 170 154.977 170C162.877 170 170.027 171.75 176.427 175.25C182.827 178.75 187.877 183.75 191.577 190.25C195.277 196.75 197.127 204.2 197.127 212.6C197.127 221 195.227 228.45 191.427 234.95C187.627 241.45 182.427 246.5 175.827 250.1C169.327 253.6 162.127 255.35 154.227 255.35ZM154.227 240.5C158.627 240.5 162.727 239.45 166.527 237.35C170.427 235.25 173.577 232.1 175.977 227.9C178.377 223.7 179.577 218.6 179.577 212.6C179.577 206.6 178.427 201.55 176.127 197.45C173.827 193.25 170.777 190.1 166.977 188C163.177 185.9 159.077 184.85 154.677 184.85C150.277 184.85 146.177 185.9 142.377 188C138.677 190.1 135.727 193.25 133.527 197.45C131.327 201.55 130.227 206.6 130.227 212.6C130.227 221.5 132.477 228.4 136.977 233.3C141.577 238.1 147.327 240.5 154.227 240.5ZM231.131 143V254H214.031V143H231.131ZM289.432 255.35C281.632 255.35 274.582 253.6 268.282 250.1C261.982 246.5 257.032 241.5 253.432 235.1C249.832 228.6 248.032 221.1 248.032 212.6C248.032 204.2 249.882 196.75 253.582 190.25C257.282 183.75 262.332 178.75 268.732 175.25C275.132 171.75 282.282 170 290.182 170C298.082 170 305.232 171.75 311.632 175.25C318.032 178.75 323.082 183.75 326.782 190.25C330.482 196.75 332.332 204.2 332.332 212.6C332.332 221 330.432 228.45 326.632 234.95C322.832 241.45 317.632 246.5 311.032 250.1C304.532 253.6 297.332 255.35 289.432 255.35ZM289.432 240.5C293.832 240.5 297.932 239.45 301.732 237.35C305.632 235.25 308.782 232.1 311.182 227.9C313.582 223.7 314.782 218.6 314.782 212.6C314.782 206.6 313.632 201.55 311.332 197.45C309.032 193.25 305.982 190.1 302.182 188C298.382 185.9 294.282 184.85 289.882 184.85C285.482 184.85 281.382 185.9 277.582 188C273.882 190.1 270.932 193.25 268.732 197.45C266.532 201.55 265.432 206.6 265.432 212.6C265.432 221.5 267.682 228.4 272.182 233.3C276.782 238.1 282.532 240.5 289.432 240.5ZM58.2 295.3V341.05C58.2 344.15 58.9 346.4 60.3 347.8C61.8 349.1 64.3 349.75 67.8 349.75H78.3V364H64.8C57.1 364 51.2 362.2 47.1 358.6C43 355 40.95 349.15 40.95 341.05V295.3H31.2V281.35H40.95V260.8H58.2V281.35H78.3V295.3H58.2ZM129.911 365.35C122.111 365.35 115.061 363.6 108.761 360.1C102.461 356.5 97.5105 351.5 93.9105 345.1C90.3105 338.6 88.5105 331.1 88.5105 322.6C88.5105 314.2 90.3605 306.75 94.0605 300.25C97.7605 293.75 102.811 288.75 109.211 285.25C115.611 281.75 122.761 280 130.661 280C138.561 280 145.711 281.75 152.111 285.25C158.511 288.75 163.561 293.75 167.261 300.25C170.961 306.75 172.811 314.2 172.811 322.6C172.811 331 170.911 338.45 167.111 344.95C163.311 351.45 158.111 356.5 151.511 360.1C145.011 363.6 137.811 365.35 129.911 365.35ZM129.911 350.5C134.311 350.5 138.411 349.45 142.211 347.35C146.111 345.25 149.261 342.1 151.661 337.9C154.061 333.7 155.261 328.6 155.261 322.6C155.261 316.6 154.111 311.55 151.811 307.45C149.511 303.25 146.461 300.1 142.661 298C138.861 295.9 134.761 294.85 130.361 294.85C125.961 294.85 121.861 295.9 118.061 298C114.361 300.1 111.411 303.25 109.211 307.45C107.011 311.55 105.911 316.6 105.911 322.6C105.911 331.5 108.161 338.4 112.661 343.3C117.261 348.1 123.011 350.5 129.911 350.5ZM264.565 281.35V364H247.465V354.25C244.765 357.65 241.215 360.35 236.815 362.35C232.515 364.25 227.915 365.2 223.015 365.2C216.515 365.2 210.665 363.85 205.465 361.15C200.365 358.45 196.315 354.45 193.315 349.15C190.415 343.85 188.965 337.45 188.965 329.95V281.35H205.915V327.4C205.915 334.8 207.765 340.5 211.465 344.5C215.165 348.4 220.215 350.35 226.615 350.35C233.015 350.35 238.065 348.4 241.765 344.5C245.565 340.5 247.465 334.8 247.465 327.4V281.35H264.565ZM304.227 293.35C306.727 289.15 310.027 285.9 314.127 283.6C318.327 281.2 323.277 280 328.977 280V297.7H324.627C317.927 297.7 312.827 299.4 309.327 302.8C305.927 306.2 304.227 312.1 304.227 320.5V364H287.127V281.35H304.227V293.35ZM420.445 320.65C420.445 323.75 420.245 326.55 419.845 329.05H356.695C357.195 335.65 359.645 340.95 364.045 344.95C368.445 348.95 373.845 350.95 380.245 350.95C389.445 350.95 395.945 347.1 399.745 339.4H418.195C415.695 347 411.145 353.25 404.545 358.15C398.045 362.95 389.945 365.35 380.245 365.35C372.345 365.35 365.245 363.6 358.945 360.1C352.745 356.5 347.845 351.5 344.245 345.1C340.745 338.6 338.995 331.1 338.995 322.6C338.995 314.1 340.695 306.65 344.095 300.25C347.595 293.75 352.445 288.75 358.645 285.25C364.945 281.75 372.145 280 380.245 280C388.045 280 394.995 281.7 401.095 285.1C407.195 288.5 411.945 293.3 415.345 299.5C418.745 305.6 420.445 312.65 420.445 320.65ZM402.595 315.25C402.495 308.95 400.245 303.9 395.845 300.1C391.445 296.3 385.995 294.4 379.495 294.4C373.595 294.4 368.545 296.3 364.345 300.1C360.145 303.8 357.645 308.85 356.845 315.25H402.595ZM454.373 293.35C456.873 289.15 460.173 285.9 464.273 283.6C468.473 281.2 473.423 280 479.123 280V297.7H474.773C468.073 297.7 462.973 299.4 459.473 302.8C456.073 306.2 454.373 312.1 454.373 320.5V364H437.273V281.35H454.373V293.35Z" fill="white"/>
<path d="M410.846 208.916C410.133 209.549 408.759 210.129 407.833 210.473C407.213 210.704 406.553 210.8 405.891 210.8C403.566 210.8 401.413 209.576 400.223 207.579L386.269 184.146C384.125 180.546 385.654 175.643 389.797 175.011C393.427 174.458 398.792 175.13 401.063 175.467C401.783 175.575 402.508 175.62 403.236 175.607C403.919 175.595 404.793 175.593 405.465 175.639C408.913 175.876 411.103 176.315 413.695 177.837C417.052 179.806 417.748 181.891 418.127 184.848C418.231 185.662 418.217 186.126 418.127 186.941C417.869 189.275 416.541 190.441 415.594 192.696C414.825 194.53 413.886 195.506 413.695 197.405C413.63 198.058 413.733 198.426 413.695 199.08C413.567 201.275 412.915 202.471 412.271 204.626C411.768 206.309 412.396 207.541 410.846 208.916Z" fill="#D9D9D9"/>
<path d="M379.594 252.587C381.277 253.738 382.847 254.404 384.81 253.73C385.987 253.326 386.538 252.762 387.28 251.825C388.425 250.38 388.497 249.173 388.515 247.38C388.538 245.153 387.301 244.084 386.731 241.92C385.794 238.362 385.486 236.302 385.221 232.649C385.006 229.68 385.133 228.004 385.221 225.029C385.318 221.783 385.72 217.323 385.972 214.756C386.087 213.59 387.069 212.71 388.241 212.71C389.618 212.569 390.858 213.546 391.055 214.916C391.203 215.94 391.377 217.107 391.535 218.044C392.375 223.042 392.649 225.917 394.28 230.744C396.327 236.801 398.019 240.116 401.692 245.475C403.317 247.847 403.875 249.537 406.221 251.317C407.118 251.998 407.585 252.521 408.692 252.841C409.868 253.182 410.65 253.107 411.849 252.841C413.014 252.583 413.739 252.348 414.594 251.571C415.381 250.856 415.687 250.273 415.966 249.285C416.251 248.278 416.217 247.634 415.966 246.618C415.7 245.537 415.177 245.047 414.594 244.078C413.154 241.686 411.683 240.734 410.202 238.364C408.641 235.866 408.064 234.313 406.907 231.633C405.154 227.569 404.19 225.245 403.202 220.965C402.445 217.687 402.317 215.793 401.966 212.457C401.633 209.291 401.456 207.509 401.417 204.329C401.353 199.008 401.652 196.001 402.515 190.74C402.573 190.389 402.64 190.01 402.713 189.619C403.249 186.74 405.902 184.874 408.829 184.771C410.876 184.7 412.032 184.814 414.045 184.263C414.432 184.157 414.894 184.03 415.388 183.893C418.34 183.073 421.594 181.427 424.201 179.819C425.574 178.972 426.874 177.687 428.182 176.009C429.556 174.246 430.064 173.078 430.927 171.056C431.786 169.041 432.587 167.888 432.574 165.722C432.568 164.67 432.764 163.948 432.162 163.055C431.548 162.145 430.842 161.665 429.692 161.531C428.698 161.416 428.067 161.67 427.221 162.166C426.581 162.541 426.261 162.848 425.849 163.436C425.134 164.456 425.519 165.314 425.162 166.484C424.679 168.071 424.386 168.983 423.515 170.421C422.508 172.083 421.775 172.981 420.221 174.231C418.84 175.341 417.905 175.813 416.241 176.517C414.312 177.332 413.384 177.914 411.025 177.914H404.986C402.627 177.914 400.84 177.597 398.26 177.025C396.348 176.6 395.297 176.268 393.457 175.628C389.44 174.23 387.072 173.398 383.712 170.929C381.693 169.446 380.483 168.59 379.045 166.611C377.556 164.563 377.093 163.162 376.437 160.769C375.722 158.162 375.875 156.598 375.751 153.911C375.643 151.583 377.129 149.894 375.751 147.943L375.746 147.936C375.147 147.088 374.729 146.496 373.692 146.165C372.279 145.714 371.202 146.248 369.986 147.054C367.861 148.462 368.606 150.633 368.202 153.022C367.655 156.256 367.677 158.167 368.202 161.404C368.682 164.369 369.013 166.124 370.535 168.77C372.038 171.382 373.35 172.656 375.751 174.612C378.855 177.14 380.946 180.885 380.16 184.81C379.128 189.958 377.739 197.107 376.849 202.551C375.894 208.39 375.146 211.648 374.653 217.536C373.991 225.448 373.373 230.009 374.653 237.856C375.243 241.473 375.514 243.556 376.849 246.999C377.723 249.256 377.51 251.163 379.594 252.587Z" fill="white"/>
<circle cx="400.2" cy="164" r="10.8" fill="white"/>
<path d="M389.637 174.8C389.637 174.8 388.204 180.656 388.924 184.31C390.004 189.791 392.79 192.472 397.058 196.075C401.5 199.826 410.619 202.221 410.619 202.221" stroke="#D9D9D9" stroke-width="2.5" stroke-linecap="round"/>
</svg>
