<svg xmlns="http://www.w3.org/2000/svg" version="1.1" viewBox="-5.0 -10.0 110.0 135.0">
 <path d="m74.457 68.012h5.1133l-4.168 3h0.003906c-0.57031 0.41406-0.80859 1.1484-0.59375 1.8203l1.582 4.8633-4.168-3.0117 0.003907 0.003906c-0.57031-0.41797-1.3477-0.41797-1.918 0l-4.168 3.0117 1.582-4.8633 0.003907-0.003907c0.21484-0.67188-0.023438-1.4062-0.59375-1.8203l-4.168-3h5.1133c0.76562 0.078125 1.4805-0.39062 1.7109-1.125l1.582-4.8633 1.543 4.8633c0.21875 0.66406 0.83984 1.1172 1.5391 1.125zm16.082 1.6875h0.003907c0 5.0977-2.0234 9.9883-5.625 13.594-3.6055 3.6055-8.4922 5.6328-13.59 5.6328-5.1016 0.003907-9.9883-2.0234-13.594-5.6289s-5.6328-8.4922-5.6289-13.594c0-5.0977 2.0273-9.9844 5.6328-13.59 3.6055-3.6016 8.4961-5.625 13.594-5.625 5.0938 0.007813 9.9727 2.0352 13.574 5.6367s5.6289 8.4805 5.6367 13.574zm-7.8008-2.7188c-0.20703-0.65625-0.80469-1.1055-1.4883-1.125h-6.3555l-1.9766-6.043c-0.22266-0.67188-0.84766-1.125-1.5547-1.125-0.71094-0.007812-1.3477 0.44531-1.5703 1.125l-1.957 6.043h-6.3789c-0.70703-0.007813-1.3398 0.44531-1.5586 1.1211-0.21875 0.67578 0.023437 1.4141 0.60156 1.8242l5.125 3.7305-1.957 6.043c-0.14062 0.48828-0.042969 1.0156 0.26172 1.4219 0.30078 0.41016 0.78125 0.65234 1.2891 0.66016 0.34375 0 0.67969-0.10938 0.95703-0.3125l5.1367-3.7305 5.1367 3.7305c0.57031 0.41016 1.3398 0.40625 1.9102-0.007812 0.57031-0.41406 0.8125-1.1445 0.59766-1.8164l-1.9688-6.043 5.1445-3.7305 0.003907 0.003906c0.55469-0.40234 0.79688-1.1133 0.60156-1.7695zm-19.195-36.855c0.99219 0 1.9414-0.39453 2.6445-1.0938 0.69922-0.70312 1.0938-1.6523 1.0938-2.6445v-11.562c0-2.0664-1.6758-3.7422-3.7383-3.7422-2.0664 0-3.7422 1.6758-3.7422 3.7422v11.562c0 2.0625 1.6758 3.7383 3.7422 3.7383zm-39.781 26.438h-2.8438c-0.33984 0-0.61719 0.27344-0.61719 0.61328v2.8438c0 0.34375 0.27344 0.62109 0.61719 0.625h2.8438c0.34375 0 0.625-0.27734 0.625-0.625v-2.8438c0-0.16406-0.066407-0.32031-0.18359-0.4375-0.11719-0.11328-0.27734-0.17969-0.44141-0.17578zm53.375-32.105c-0.007813-3.0273-2.4648-5.4766-5.4922-5.4766h-2.1758v7.4062c0 3.2539-2.6406 5.8945-5.8945 5.8945-3.2578 0-5.8984-2.6406-5.8984-5.8945v-7.4062h-28.77v7.4062c0 3.2539-2.6406 5.8945-5.8945 5.8945-3.2578 0-5.8984-2.6406-5.8984-5.8945v-7.4062h-2.1758c-3.0234 0.003906-5.4727 2.4531-5.4805 5.4766v10.301h67.707zm-30.355 5.125h-6.9805c-0.59375 0-1.0781-0.48047-1.0781-1.0781 0-0.59375 0.48438-1.0781 1.0781-1.0781h6.9805c0.59375 0 1.0781 0.48438 1.0781 1.0781 0 0.59766-0.48438 1.0781-1.0781 1.0781zm-23.02 37.156h-2.8438c-0.34375 0.007813-0.61719 0.28516-0.61719 0.625v2.8438c0 0.16406 0.066407 0.32031 0.17969 0.4375 0.11719 0.11328 0.27344 0.17969 0.4375 0.17969h2.8438c0.16406 0 0.32422-0.0625 0.44141-0.17578 0.11719-0.11719 0.18359-0.27344 0.18359-0.44141v-2.8438c0-0.16406-0.066407-0.32422-0.18359-0.44141s-0.27734-0.18359-0.44141-0.18359zm53.375-29.82h-67.707v2.4375h67.707zm-54.168-6.793c0.99219 0 1.9414-0.39453 2.6445-1.0938 0.69922-0.70312 1.0938-1.6523 1.0938-2.6445v-11.562c0-2.0664-1.6719-3.7422-3.7383-3.7422s-3.7383 1.6758-3.7383 3.7422v11.562c0 0.99609 0.39844 1.957 1.1094 2.6562 0.71094 0.70312 1.6719 1.0938 2.6719 1.082zm21.625 26.438h-2.8438c-0.16406-0.003906-0.32031 0.0625-0.4375 0.17578-0.11719 0.11719-0.17969 0.27344-0.17578 0.4375v2.8438c-0.003907 0.16797 0.058593 0.32422 0.17578 0.44141 0.11328 0.11719 0.27344 0.18359 0.4375 0.18359h2.8438c0.34375 0 0.625-0.27734 0.625-0.625v-2.8438c0-0.16406-0.066406-0.32031-0.18359-0.4375-0.11719-0.11328-0.27734-0.17969-0.44141-0.17578zm7.5742-6.1055h2.8438c0.16406 0 0.32031-0.066406 0.4375-0.18359 0.11328-0.11719 0.17969-0.27344 0.17578-0.44141v-2.8438c0.003906-0.16406-0.0625-0.32031-0.17578-0.4375-0.11719-0.11328-0.27344-0.17969-0.4375-0.17578h-2.8438c-0.16797-0.003906-0.32422 0.0625-0.44141 0.17578-0.11719 0.11719-0.18359 0.27344-0.18359 0.4375v2.8438c0 0.16797 0.066406 0.32422 0.18359 0.44141 0.11719 0.11719 0.27344 0.18359 0.44141 0.18359zm-7.5742 16.281h-2.8438c-0.16406 0-0.32422 0.066407-0.4375 0.18359-0.11719 0.11719-0.17969 0.27734-0.17578 0.44141v2.8438c-0.003907 0.16406 0.058593 0.32422 0.17578 0.4375 0.11719 0.11719 0.27344 0.17969 0.4375 0.17969h2.8438c0.16406 0 0.32422-0.0625 0.44141-0.17578 0.11719-0.11719 0.18359-0.27344 0.18359-0.44141v-2.8438c0-0.16406-0.066406-0.32422-0.18359-0.44141-0.11719-0.11719-0.27734-0.18359-0.44141-0.18359zm5.4062 2.9609c-0.003906-6.6875 3.1289-12.988 8.457-17.023 5.3281-4.0391 12.242-5.3438 18.68-3.5312v-7.6328h-67.707v31.043l-0.003907-0.003907c0.007813 3.0234 2.457 5.4766 5.4805 5.4805h36.75c-1.1094-2.6367-1.6719-5.4727-1.6562-8.332zm-23.418 0.51172v-0.003907c-0.003906 1.5352-1.2461 2.7734-2.7812 2.7734h-2.8828c-1.5312 0-2.7734-1.2422-2.7734-2.7734v-2.8438c0-1.5312 1.2383-2.7734 2.7734-2.7812h2.8438c1.5312 0.007813 2.7734 1.25 2.7812 2.7812zm0-10.188v-0.003907c-0.003906 1.5352-1.2461 2.7773-2.7812 2.7812h-2.8828c-1.5352-0.003906-2.7734-1.2461-2.7734-2.7812v-2.8438c0-1.5273 1.2422-2.7695 2.7734-2.7695h2.8438c1.5312 0 2.7734 1.2383 2.7812 2.7695zm10.418 10.188v-0.003907c0 1.5312-1.2422 2.7734-2.7695 2.7734h-2.9805c-1.5312 0-2.7773-1.2383-2.7812-2.7734v-2.8438c0.003906-1.5312 1.2461-2.7734 2.7812-2.7812h2.8438c1.5312 0.007813 2.7695 1.25 2.7695 2.7812zm0-10.188v-0.003907c0 1.5352-1.2383 2.7773-2.7695 2.7812h-2.9805c-1.5352-0.003906-2.7773-1.2461-2.7812-2.7812v-2.8438c0.003906-1.5312 1.25-2.7695 2.7812-2.7695h2.8438c1.5312 0 2.7695 1.2422 2.7695 2.7695zm0-10.188v-0.003907c-0.003906 1.5352-1.2461 2.7773-2.7812 2.7812h-2.8867c-1.5312-0.003906-2.7695-1.2461-2.7695-2.7812v-2.8438c0-1.5273 1.2422-2.7695 2.7695-2.7695h2.8438c1.5352 0 2.7773 1.2383 2.7812 2.7695zm1.9688-2.8438v-0.003907c0.003906-1.5 1.1992-2.7227 2.6992-2.7695h2.8438c1.5273 0 2.7695 1.2422 2.7695 2.7695v2.8438c0 1.5352-1.2383 2.7773-2.7695 2.7812h-2.8438c-1.5352-0.003906-2.7773-1.2461-2.7812-2.7812zm8.4062 23.215c-0.003906 1.5352-1.25 2.7734-2.7812 2.7734h-2.8438c-1.5312 0-2.7695-1.2422-2.7695-2.7734v-2.8438c0-1.5312 1.2383-2.7734 2.7695-2.7812h2.8438c1.5352 0.007813 2.7773 1.25 2.7812 2.7812zm0-10.188c-0.003906 1.5352-1.2461 2.7773-2.7812 2.7812h-2.8438c-1.5312-0.003906-2.7695-1.2461-2.7695-2.7812v-2.8438c0-1.5273 1.2383-2.7695 2.7695-2.7695h2.8438c1.5312 0 2.7773 1.2383 2.7812 2.7695zm2.0117-13.031c0.003906-1.5312 1.2461-2.7695 2.7812-2.7695h2.8438c1.5312 0 2.7734 1.2383 2.7812 2.7695v2.8438c-0.007813 1.5352-1.25 2.7773-2.7812 2.7812h-2.8438c-1.5352-0.003906-2.7773-1.2461-2.7812-2.7812zm-15.207-0.61328h-2.8477c-0.16406-0.003906-0.32031 0.0625-0.4375 0.17578-0.11328 0.11719-0.17969 0.27344-0.17578 0.4375v2.8438c-0.003906 0.16797 0.0625 0.32422 0.17578 0.44141 0.11719 0.11719 0.27344 0.18359 0.4375 0.18359h2.8438c0.34766 0 0.625-0.27734 0.625-0.625v-2.8438c0-0.16406-0.066406-0.32031-0.18359-0.4375-0.11719-0.11328-0.27344-0.17969-0.44141-0.17578zm7.4883 4.082h2.8438c0.16406 0 0.32031-0.066406 0.4375-0.18359 0.11328-0.11719 0.17969-0.27344 0.17578-0.44141v-2.8438c0.003906-0.16406-0.0625-0.32031-0.17578-0.4375-0.11719-0.11328-0.27344-0.17969-0.4375-0.17578h-2.8438c-0.16797-0.003906-0.32422 0.0625-0.44141 0.17578-0.11719 0.11719-0.18359 0.27344-0.18359 0.4375v2.8438c0 0.16797 0.066406 0.32422 0.18359 0.44141 0.11719 0.11719 0.27344 0.18359 0.44141 0.18359zm-7.5312 6.1055h-2.8867c-0.16406-0.003906-0.32422 0.0625-0.44141 0.17578-0.11719 0.11719-0.18359 0.27344-0.18359 0.4375v2.8438c0 0.34766 0.28125 0.625 0.625 0.625h2.8438c0.16406 0 0.32422-0.066406 0.4375-0.18359 0.11719-0.11719 0.17969-0.27344 0.17578-0.44141v-2.8438c0.007813-0.32422-0.24609-0.59766-0.57031-0.61328zm0 10.176h-2.8867c-0.34375 0-0.625 0.28125-0.625 0.625v2.8438c-0.003906 0.16797 0.0625 0.32812 0.17969 0.44531 0.11719 0.11719 0.27734 0.18359 0.44531 0.17969h2.8438c0.16406 0.003907 0.32031-0.058593 0.4375-0.17578s0.17969-0.27344 0.17578-0.4375v-2.8555c0.007813-0.32812-0.24609-0.60156-0.57031-0.625z"/>
<text x="0.0" y="117.5" font-size="5.0" font-weight="bold" font-family="Arbeit Regular, Helvetica, Arial-Unicode, Arial, Sans-serif" fill="#000000">Created by Asep Jangkar</text><text x="0.0" y="122.5" font-size="5.0" font-weight="bold" font-family="Arbeit Regular, Helvetica, Arial-Unicode, Arial, Sans-serif" fill="#000000">from Noun Project</text></svg>